<svg width="2082" height="1475" viewBox="0 0 2082 1475" fill="none" xmlns="http://www.w3.org/2000/svg">
<g clip-path="url(#clip0_1641_3891)">
<rect width="2082" height="1475" fill="#080511"/>
<circle cx="411.046" cy="473.601" r="333.601" fill="#24212B"/>
<circle cx="1670.95" cy="473.601" r="333.601" fill="#24212B"/>
<circle cx="682.021" cy="873.104" r="214.896" fill="#24212B"/>
<circle cx="1399.98" cy="873.104" r="214.896" fill="#24212B"/>
<rect x="425" y="369" width="1233" height="438" fill="#24212B"/>
<rect x="425" y="-60" width="1233" height="438" fill="#24212B"/>
<rect x="682.43" y="807.202" width="717.959" height="280.798" fill="#24212B"/>
<rect x="836.725" y="1237" width="408.553" height="358" rx="179" fill="white"/>
<rect x="811" y="1237" width="460" height="54.363" rx="27.1815" fill="white"/>
<circle cx="411.046" cy="622.601" r="333.601" fill="#24212B"/>
<circle cx="1670.95" cy="622.601" r="333.601" fill="#24212B"/>
<circle cx="1948.6" cy="193.601" r="333.601" fill="#24212B"/>
<circle cx="1878.6" cy="239.601" r="333.601" fill="#24212B"/>
<circle cx="202.601" cy="239.601" r="333.601" fill="#24212B"/>
<circle cx="612.896" cy="1022.1" r="214.896" fill="#24212B"/>
<circle cx="1537.69" cy="1022.1" r="214.896" fill="#24212B"/>
<rect x="425" y="518" width="1233" height="438" fill="#24212B"/>
<rect x="425" y="135" width="1233" height="438" fill="#24212B"/>
<rect x="579" y="956" width="924" height="281" fill="#24212B"/>
</g>
<defs>
<clipPath id="clip0_1641_3891">
<rect width="2082" height="1475" fill="white"/>
</clipPath>
</defs>
</svg>
