<svg width="54" height="50" viewBox="0 0 54 50" fill="none" xmlns="http://www.w3.org/2000/svg">
<path d="M23.7129 5.74049C25.2063 3.58675 25.953 2.50988 27 2.50988C28.047 2.50988 28.7937 3.58675 30.2871 5.74049L35.463 13.2049C35.8628 13.7815 36.0627 14.0698 36.3417 14.2707C36.6207 14.4716 36.9575 14.5697 37.6311 14.766L46.3432 17.3043C48.907 18.0512 50.1889 18.4247 50.515 19.4328C50.8412 20.441 50.021 21.4945 48.3806 23.6017L42.882 30.665C42.4455 31.2259 42.2272 31.5063 42.1187 31.837C42.0103 32.1678 42.0202 32.523 42.0399 33.2334L42.2891 42.1867C42.3625 44.8254 42.3992 46.1447 41.5495 46.7647C40.6999 47.3846 39.4547 46.9469 36.9643 46.0717L28.3263 43.0357C27.6696 42.8049 27.3412 42.6895 27 42.6895C26.6588 42.6895 26.3304 42.8049 25.6737 43.0357L17.0357 46.0717C14.5453 46.9469 13.3001 47.3846 12.4505 46.7647C11.6008 46.1447 11.6375 44.8254 11.7109 42.1867L11.9601 33.2334C11.9798 32.523 11.9897 32.1678 11.8813 31.837C11.7728 31.5063 11.5545 31.2259 11.118 30.665L5.61935 23.6017C3.97899 21.4945 3.1588 20.441 3.48497 19.4328C3.81113 18.4247 5.09302 18.0512 7.6568 17.3043L16.3689 14.766C17.0425 14.5697 17.3793 14.4716 17.6583 14.2707C17.9373 14.0698 18.1372 13.7815 18.537 13.2049L23.7129 5.74049Z" fill="#FFB30D" stroke="white" stroke-width="5" stroke-linecap="round"/>
</svg>
