<svg width="24" height="25" viewBox="0 0 24 25" fill="none" xmlns="http://www.w3.org/2000/svg">
<path d="M7.42162 13.3554C5.15895 12.7897 4.02761 12.5069 3.95822 11.8061C3.88882 11.1053 4.94272 10.6061 7.05053 9.60765L15.9391 5.39728C18.0506 4.39707 19.1064 3.89696 19.6047 4.39527C20.103 4.89358 19.6029 5.94937 18.6027 8.06093L14.3924 16.9495C13.3939 19.0573 12.8947 20.1112 12.1939 20.0418C11.4931 19.9724 11.2103 18.8411 10.6446 16.5784L10.291 15.1642C10.1492 14.597 10.0783 14.3134 9.88249 14.1175C9.68663 13.9217 9.40303 13.8508 8.83583 13.709L7.42162 13.3554Z" stroke="#4D18E8" stroke-width="2" stroke-linecap="round" stroke-linejoin="round"/>
</svg>
