<svg width="24" height="25" viewBox="0 0 24 25" fill="none" xmlns="http://www.w3.org/2000/svg">
<path d="M3 13.4915C3 11.296 3 10.1982 3.51122 9.28671C4.02244 8.37518 4.95776 7.80359 6.8284 6.66042L7.8284 6.04931C9.85916 4.80829 10.8745 4.18778 12 4.18778C13.1255 4.18778 14.1408 4.80829 16.1716 6.04931L17.1716 6.66042C19.0422 7.80359 19.9776 8.37518 20.4888 9.28671C21 10.1982 21 11.296 21 13.4915V13.4915C21 17.2684 21 19.1569 19.8284 20.3284C18.6569 21.5 16.7712 21.5 13 21.5H11C7.22876 21.5 5.34315 21.5 4.17157 20.3284C3 19.1569 3 17.2684 3 13.4915V13.4915Z" stroke="#4D18E8" stroke-width="2" stroke-linecap="round"/>
<path d="M9 20.5V16.5C9 15.5681 9 15.1022 9.15224 14.7346C9.35523 14.2446 9.74458 13.8552 10.2346 13.6522C10.6022 13.5 11.0681 13.5 12 13.5V13.5C12.9319 13.5 13.3978 13.5 13.7654 13.6522C14.2554 13.8552 14.6448 14.2446 14.8478 14.7346C15 15.1022 15 15.5681 15 16.5V20.5" stroke="#4D18E8" stroke-width="2" stroke-linecap="round"/>
</svg>
