<svg width="24" height="25" viewBox="0 0 24 25" fill="none" xmlns="http://www.w3.org/2000/svg">
<path d="M12 8.27778C12 7.27585 11.5786 6.31496 10.8284 5.60649C10.0783 4.89801 9.06087 4.5 8 4.5V4.5C5.17157 4.5 3.75736 4.5 2.87868 5.37868C2 6.25736 2 7.67157 2 10.5V12.6667C2 15.4951 2 16.9093 2.87868 17.788C3.75736 18.6667 5.17157 18.6667 8 18.6667H9C9.79565 18.6667 10.5587 18.9652 11.1213 19.4965C11.6839 20.0279 12 20.7486 12 21.5M12 8.27778V21.5M12 8.27778C12 7.27585 12.4214 6.31496 13.1716 5.60649C13.9217 4.89801 14.9391 4.5 16 4.5V4.5C18.8284 4.5 20.2426 4.5 21.1213 5.37868C22 6.25736 22 7.67157 22 10.5V12.6667C22 15.4951 22 16.9093 21.1213 17.788C20.2426 18.6667 18.8284 18.6667 16 18.6667H15C14.2044 18.6667 13.4413 18.9652 12.8787 19.4965C12.3161 20.0279 12 20.7486 12 21.5" stroke="#4D18E8" stroke-width="2" stroke-linecap="round" stroke-linejoin="round"/>
</svg>
