<svg width="24" height="25" viewBox="0 0 24 25" fill="none" xmlns="http://www.w3.org/2000/svg">
<path d="M10 21.9998C10.5523 21.9998 11 21.552 11 20.9998C11 20.4475 10.5523 19.9998 10 19.9998C9.44772 19.9998 9 20.4475 9 20.9998C9 21.552 9.44772 21.9998 10 21.9998Z" stroke="#4D18E8" stroke-width="2" stroke-linecap="round" stroke-linejoin="round"/>
<path d="M17 21.9998C17.5523 21.9998 18 21.552 18 20.9998C18 20.4475 17.5523 19.9998 17 19.9998C16.4477 19.9998 16 20.4475 16 20.9998C16 21.552 16.4477 21.9998 17 21.9998Z" stroke="#4D18E8" stroke-width="2" stroke-linecap="round" stroke-linejoin="round"/>
<rect x="6" y="6.00024" width="15" height="11" rx="4" stroke="#4D18E8" stroke-width="2" stroke-linecap="round"/>
<path d="M6.00001 11V5C6.00001 3.89543 5.10458 3 4.00001 3H3" stroke="#4D18E8" stroke-width="2" stroke-linecap="round"/>
</svg>
