<svg width="268" height="52" viewBox="0 0 268 52" fill="none" xmlns="http://www.w3.org/2000/svg">
<path d="M9.14697 13.672C9.14697 10.936 10.683 9.39999 13.419 9.39999H23.355C33.819 9.39999 40.491 16.792 40.491 25.864C40.491 35.176 33.579 43 23.355 43H13.419C10.683 43 9.14697 41.464 9.14697 38.728V13.672ZM17.547 36.04H23.355C28.635 36.04 31.995 31.768 31.995 25.864C31.995 20.296 28.635 16.36 23.355 16.36H17.547V36.04ZM45.897 13.192C45.897 10.888 47.769 9.01599 50.073 9.01599C52.425 9.01599 54.297 10.888 54.297 13.192V36.04H64.473C66.393 36.04 67.929 37.576 67.929 39.544C67.929 41.464 66.393 43 64.473 43H50.169C47.433 43 45.897 41.464 45.897 38.728V13.192Z" fill="white"/>
<mask id="mask0_576_413" style="mask-type:luminance" maskUnits="userSpaceOnUse" x="4" y="4" width="69" height="44">
<path d="M73 4H4V48H73V4Z" fill="white"/>
<path d="M9.14697 13.672C9.14697 10.936 10.683 9.39999 13.419 9.39999H23.355C33.819 9.39999 40.491 16.792 40.491 25.864C40.491 35.176 33.579 43 23.355 43H13.419C10.683 43 9.14697 41.464 9.14697 38.728V13.672ZM17.547 36.04H23.355C28.635 36.04 31.995 31.768 31.995 25.864C31.995 20.296 28.635 16.36 23.355 16.36H17.547V36.04ZM45.897 13.192C45.897 10.888 47.769 9.01599 50.073 9.01599C52.425 9.01599 54.297 10.888 54.297 13.192V36.04H64.473C66.393 36.04 67.929 37.576 67.929 39.544C67.929 41.464 66.393 43 64.473 43H50.169C47.433 43 45.897 41.464 45.897 38.728V13.192Z" fill="black"/>
</mask>
<g mask="url(#mask0_576_413)">
<path d="M17.547 36.04H12.547V41.04H17.547V36.04ZM17.547 16.36V11.36H12.547V16.36H17.547ZM14.147 13.672C14.147 13.448 14.1791 13.4168 14.1443 13.5154C14.1039 13.6299 14.0007 13.8373 13.7925 14.0455C13.5843 14.2537 13.3768 14.3569 13.2624 14.3973C13.1637 14.4322 13.1949 14.4 13.419 14.4V4.39999C11.1331 4.39999 8.63894 5.05695 6.72143 6.97445C4.80393 8.89196 4.14697 11.3861 4.14697 13.672H14.147ZM13.419 14.4H23.355V4.39999H13.419V14.4ZM23.355 14.4C31.0481 14.4 35.491 19.5439 35.491 25.864H45.491C45.491 14.0401 36.5899 4.39999 23.355 4.39999V14.4ZM35.491 25.864C35.491 32.5916 30.6438 38 23.355 38V48C36.5142 48 45.491 37.7604 45.491 25.864H35.491ZM23.355 38H13.419V48H23.355V38ZM13.419 38C13.1949 38 13.1637 37.9678 13.2624 38.0027C13.3768 38.0431 13.5843 38.1463 13.7925 38.3545C14.0007 38.5626 14.1039 38.7701 14.1443 38.8846C14.1791 38.9832 14.147 38.952 14.147 38.728H4.14697C4.14697 41.0139 4.80393 43.508 6.72143 45.4255C8.63894 47.343 11.1331 48 13.419 48V38ZM14.147 38.728V13.672H4.14697V38.728H14.147ZM17.547 41.04H23.355V31.04H17.547V41.04ZM23.355 41.04C27.461 41.04 31.0382 39.3262 33.5013 36.3606C35.8942 33.4796 36.995 29.7294 36.995 25.864H26.995C26.995 27.9026 26.4158 29.2404 25.8086 29.9714C25.2717 30.6178 24.5289 31.04 23.355 31.04V41.04ZM36.995 25.864C36.995 22.0908 35.8492 18.4542 33.3847 15.6939C30.8697 12.8771 27.3165 11.36 23.355 11.36V21.36C24.6734 21.36 25.4403 21.8109 25.9253 22.3541C26.4608 22.9538 26.995 24.0692 26.995 25.864H36.995ZM23.355 11.36H17.547V21.36H23.355V11.36ZM12.547 16.36V36.04H22.547V16.36H12.547ZM54.297 36.04H49.297V41.04H54.297V36.04ZM50.897 13.192C50.897 13.6494 50.5304 14.016 50.073 14.016V4.01599C45.0076 4.01599 40.897 8.12656 40.897 13.192H50.897ZM50.073 14.016C49.7009 14.016 49.297 13.6866 49.297 13.192H59.297C59.297 8.08937 55.1491 4.01599 50.073 4.01599V14.016ZM49.297 13.192V36.04H59.297V13.192H49.297ZM54.297 41.04H64.473V31.04H54.297V41.04ZM64.473 41.04C63.5866 41.04 62.929 40.2922 62.929 39.544H72.929C72.929 34.8598 69.1994 31.04 64.473 31.04V41.04ZM62.929 39.544C62.929 38.7026 63.6316 38 64.473 38V48C69.1544 48 72.929 44.2254 72.929 39.544H62.929ZM64.473 38H50.169V48H64.473V38ZM50.169 38C49.9449 38 49.9137 37.9678 50.0124 38.0027C50.1268 38.0431 50.3343 38.1463 50.5425 38.3545C50.7507 38.5626 50.8539 38.7701 50.8943 38.8846C50.9291 38.9832 50.897 38.952 50.897 38.728H40.897C40.897 41.0139 41.5539 43.508 43.4714 45.4255C45.3889 47.343 47.8831 48 50.169 48V38ZM50.897 38.728V13.192H40.897V38.728H50.897Z" fill="#A38CE6"/>
</g>
<path d="M93.6558 17.032C93.6558 16.2427 93.8691 15.6453 94.2958 15.24C94.7225 14.8133 95.3198 14.6 96.0878 14.6H102.616C104.899 14.6 106.904 15.0907 108.632 16.072C110.36 17.032 111.693 18.344 112.632 20.008C113.571 21.672 114.04 23.5067 114.04 25.512C114.04 27.6027 113.56 29.5333 112.6 31.304C111.661 33.0533 110.317 34.44 108.568 35.464C106.84 36.488 104.856 37 102.616 37H96.0878C95.3198 37 94.7225 36.7867 94.2958 36.36C93.8691 35.9333 93.6558 35.336 93.6558 34.568V17.032ZM98.4878 18.696V32.904H102.616C103.939 32.904 105.091 32.584 106.072 31.944C107.053 31.304 107.811 30.4293 108.344 29.32C108.877 28.1893 109.144 26.92 109.144 25.512C109.144 24.2107 108.877 23.048 108.344 22.024C107.811 20.9787 107.053 20.168 106.072 19.592C105.091 18.9947 103.939 18.696 102.616 18.696H98.4878ZM122.961 37.384C121.724 37.384 120.679 37.1067 119.825 36.552C118.972 35.9973 118.332 35.2827 117.905 34.408C117.479 33.512 117.265 32.5733 117.265 31.592V22.792C117.265 22.152 117.489 21.608 117.937 21.16C118.385 20.712 118.919 20.488 119.537 20.488C120.177 20.488 120.721 20.712 121.169 21.16C121.617 21.608 121.841 22.152 121.841 22.792V30.632C121.841 31.4853 122.012 32.1787 122.353 32.712C122.716 33.224 123.409 33.48 124.433 33.48C125.436 33.48 126.204 33.1067 126.737 32.36C127.271 31.592 127.537 30.5787 127.537 29.32V22.792C127.537 22.152 127.761 21.608 128.209 21.16C128.679 20.712 129.223 20.488 129.841 20.488C130.481 20.488 131.025 20.712 131.473 21.16C131.921 21.608 132.145 22.152 132.145 22.792L132.177 35.08C132.177 35.6773 131.964 36.1893 131.537 36.616C131.111 37.0213 130.599 37.224 130.001 37.224C129.361 37.224 128.839 37.0427 128.433 36.68C128.028 36.3173 127.825 35.848 127.825 35.272V34.824C127.271 35.6133 126.588 36.2427 125.777 36.712C124.967 37.16 124.028 37.384 122.961 37.384ZM143.817 37.384C142.153 37.384 140.681 37.0427 139.401 36.36C138.143 35.6773 137.161 34.696 136.457 33.416C135.775 32.136 135.433 30.6213 135.433 28.872C135.433 27.2293 135.785 25.7573 136.489 24.456C137.215 23.1547 138.196 22.152 139.433 21.448C140.671 20.7227 142.079 20.36 143.657 20.36C145.087 20.36 146.356 20.6693 147.465 21.288C148.596 21.9067 149.481 22.792 150.121 23.944C150.783 25.096 151.113 26.4187 151.113 27.912V28.04C151.113 28.7013 150.964 29.192 150.665 29.512C150.367 29.832 149.844 29.992 149.097 29.992H139.977C140.127 31.2933 140.575 32.2427 141.321 32.84C142.068 33.4373 143.017 33.736 144.169 33.736C144.852 33.736 145.481 33.6187 146.057 33.384C146.633 33.128 147.209 32.744 147.785 32.232C148.105 31.976 148.468 31.848 148.873 31.848C149.513 31.848 150.004 32.0613 150.345 32.488C150.687 32.8933 150.825 33.3733 150.761 33.928C150.719 34.4827 150.452 34.9307 149.961 35.272C149.129 35.9973 148.212 36.5307 147.209 36.872C146.207 37.2133 145.076 37.384 143.817 37.384ZM143.593 23.784C143.017 23.784 142.495 23.9013 142.025 24.136C141.556 24.3493 141.151 24.7013 140.809 25.192C140.468 25.6613 140.223 26.2693 140.073 27.016H146.601C146.559 26.248 146.388 25.6293 146.089 25.16C145.812 24.6693 145.449 24.3173 145.001 24.104C144.575 23.8907 144.105 23.784 143.593 23.784ZM154.456 15.72C154.456 15.08 154.68 14.536 155.128 14.088C155.597 13.64 156.152 13.416 156.792 13.416C157.41 13.416 157.944 13.64 158.392 14.088C158.84 14.536 159.064 15.08 159.064 15.72V34.92C159.064 35.56 158.84 36.104 158.392 36.552C157.944 37 157.41 37.224 156.792 37.224C156.152 37.224 155.597 37 155.128 36.552C154.68 36.104 154.456 35.56 154.456 34.92V15.72ZM162.916 28.744C162.916 28.232 163.097 27.7947 163.46 27.432C163.844 27.048 164.292 26.856 164.804 26.856H170.148C170.681 26.856 171.129 27.0373 171.492 27.4C171.876 27.7627 172.068 28.2107 172.068 28.744C172.068 29.256 171.876 29.704 171.492 30.088C171.129 30.472 170.681 30.664 170.148 30.664H164.804C164.292 30.664 163.844 30.4827 163.46 30.12C163.097 29.736 162.916 29.2773 162.916 28.744ZM176.437 16.776C176.437 16.0933 176.672 15.528 177.141 15.08C177.611 14.6107 178.176 14.376 178.837 14.376C179.52 14.376 180.096 14.6107 180.565 15.08C181.035 15.528 181.269 16.0933 181.269 16.776V32.904H189.045C189.6 32.904 190.08 33.1067 190.485 33.512C190.891 33.896 191.093 34.376 191.093 34.952C191.093 35.528 190.891 36.0187 190.485 36.424C190.08 36.808 189.6 37 189.045 37H178.869C178.101 37 177.504 36.7867 177.077 36.36C176.651 35.9333 176.437 35.336 176.437 34.568V16.776ZM200.817 37.384C199.153 37.384 197.681 37.0427 196.401 36.36C195.143 35.6773 194.161 34.696 193.457 33.416C192.775 32.136 192.433 30.6213 192.433 28.872C192.433 27.2293 192.785 25.7573 193.489 24.456C194.215 23.1547 195.196 22.152 196.433 21.448C197.671 20.7227 199.079 20.36 200.657 20.36C202.087 20.36 203.356 20.6693 204.465 21.288C205.596 21.9067 206.481 22.792 207.121 23.944C207.783 25.096 208.113 26.4187 208.113 27.912V28.04C208.113 28.7013 207.964 29.192 207.665 29.512C207.367 29.832 206.844 29.992 206.097 29.992H196.977C197.127 31.2933 197.575 32.2427 198.321 32.84C199.068 33.4373 200.017 33.736 201.169 33.736C201.852 33.736 202.481 33.6187 203.057 33.384C203.633 33.128 204.209 32.744 204.785 32.232C205.105 31.976 205.468 31.848 205.873 31.848C206.513 31.848 207.004 32.0613 207.345 32.488C207.687 32.8933 207.825 33.3733 207.761 33.928C207.719 34.4827 207.452 34.9307 206.961 35.272C206.129 35.9973 205.212 36.5307 204.209 36.872C203.207 37.2133 202.076 37.384 200.817 37.384ZM200.593 23.784C200.017 23.784 199.495 23.9013 199.025 24.136C198.556 24.3493 198.151 24.7013 197.809 25.192C197.468 25.6613 197.223 26.2693 197.073 27.016H203.601C203.559 26.248 203.388 25.6293 203.089 25.16C202.812 24.6693 202.449 24.3173 202.001 24.104C201.575 23.8907 201.105 23.784 200.593 23.784ZM215.936 37.384C214.272 37.384 212.97 36.936 212.032 36.04C211.114 35.144 210.656 34.0347 210.656 32.712C210.656 31.2827 211.136 30.1627 212.096 29.352C213.056 28.52 214.304 27.9227 215.84 27.56L222.464 26.024V29.16L217.184 30.408C216.544 30.5573 216.064 30.7813 215.744 31.08C215.424 31.3787 215.264 31.752 215.264 32.2C215.264 32.7333 215.424 33.1387 215.744 33.416C216.064 33.6933 216.544 33.832 217.184 33.832C217.824 33.832 218.432 33.672 219.008 33.352C219.584 33.0107 220.042 32.5413 220.384 31.944C220.725 31.3467 220.896 30.6533 220.896 29.864V26.952C220.896 26.056 220.661 25.3627 220.192 24.872C219.744 24.3813 219.008 24.136 217.984 24.136C217.258 24.136 216.64 24.2533 216.128 24.488C215.616 24.7227 215.008 25.0747 214.304 25.544L213.632 25.928C213.29 26.1413 212.906 26.248 212.48 26.248C211.946 26.248 211.52 26.0667 211.2 25.704C210.88 25.32 210.73 24.8827 210.752 24.392C210.773 23.88 210.986 23.4533 211.392 23.112C212.373 22.2587 213.44 21.5867 214.592 21.096C215.765 20.6053 217.034 20.36 218.4 20.36C220.789 20.36 222.549 20.968 223.68 22.184C224.81 23.4 225.376 24.9253 225.376 26.76V35.304C225.376 35.8373 225.173 36.296 224.768 36.68C224.362 37.0427 223.861 37.224 223.264 37.224C222.645 37.224 222.133 37.0427 221.728 36.68C221.344 36.296 221.152 35.8373 221.152 35.304V34.664C220.618 35.5387 219.904 36.2107 219.008 36.68C218.133 37.1493 217.109 37.384 215.936 37.384ZM231.76 37.224C231.141 37.224 230.597 37 230.128 36.552C229.68 36.104 229.456 35.56 229.456 34.92V22.664C229.456 22.088 229.669 21.5867 230.096 21.16C230.522 20.712 231.034 20.488 231.632 20.488C232.229 20.488 232.741 20.712 233.168 21.16C233.594 21.5867 233.808 22.088 233.808 22.664V23.816C234.277 22.8347 234.874 22.056 235.6 21.48C236.346 20.904 237.168 20.616 238.064 20.616C238.128 20.616 238.192 20.616 238.256 20.616C238.81 20.6373 239.269 20.8293 239.632 21.192C239.994 21.5547 240.176 22.0133 240.176 22.568C240.176 23.1653 239.994 23.6773 239.632 24.104C239.269 24.5093 238.778 24.7013 238.16 24.68C238.117 24.68 238.064 24.68 238 24.68C236.784 24.68 235.824 25.1707 235.12 26.152C234.416 27.1333 234.064 28.4987 234.064 30.248V34.92C234.064 35.56 233.84 36.104 233.392 36.552C232.944 37 232.4 37.224 231.76 37.224ZM242.331 22.664C242.331 22.0667 242.544 21.5547 242.971 21.128C243.397 20.7013 243.909 20.488 244.507 20.488C245.147 20.488 245.669 20.68 246.075 21.064C246.48 21.4267 246.683 21.896 246.683 22.472V22.952C247.237 22.12 247.931 21.48 248.763 21.032C249.595 20.584 250.576 20.36 251.707 20.36C252.987 20.36 254.064 20.648 254.939 21.224C255.813 21.8 256.464 22.5573 256.891 23.496C257.339 24.4133 257.563 25.3947 257.563 26.44V34.92C257.563 35.56 257.328 36.104 256.859 36.552C256.411 37 255.877 37.224 255.259 37.224C254.64 37.224 254.096 37 253.627 36.552C253.179 36.104 252.955 35.56 252.955 34.92V27.4C252.955 26.824 252.891 26.312 252.763 25.864C252.635 25.3947 252.368 25.0107 251.963 24.712C251.557 24.392 250.981 24.232 250.235 24.232C249.189 24.232 248.379 24.616 247.803 25.384C247.227 26.152 246.939 27.1547 246.939 28.392V34.92C246.939 35.56 246.715 36.104 246.267 36.552C245.819 37 245.285 37.224 244.667 37.224C244.027 37.224 243.472 37 243.003 36.552C242.555 36.104 242.331 35.56 242.331 34.92V22.664Z" fill="#2F1971"/>
</svg>
