<svg width="58" height="54" viewBox="0 0 58 54" fill="none" xmlns="http://www.w3.org/2000/svg">
<path d="M50.9999 24.2216C50.9999 36.4943 41.051 46.4433 28.7783 46.4433C16.5056 46.4433 6.55664 36.4943 6.55664 24.2216C6.55664 11.949 16.5056 2 28.7783 2C41.051 2 50.9999 11.949 50.9999 24.2216Z" fill="#FFBB0D"/>
<path fill-rule="evenodd" clip-rule="evenodd" d="M52.6456 24.2216C52.6456 37.4034 41.9596 48.0893 28.7779 48.0893C15.5961 48.0893 4.91016 37.4034 4.91016 24.2216C4.91016 11.0399 15.5961 0.353943 28.7779 0.353943C41.9596 0.353943 52.6456 11.0399 52.6456 24.2216ZM28.7779 46.4433C41.0505 46.4433 50.9995 36.4943 50.9995 24.2216C50.9995 11.949 41.0505 1.99999 28.7779 1.99999C16.5052 1.99999 6.5562 11.949 6.5562 24.2216C6.5562 36.4943 16.5052 46.4433 28.7779 46.4433Z" fill="#E89B05"/>
<path fill-rule="evenodd" clip-rule="evenodd" d="M8.20293 25.0446C7.74839 25.0446 7.37991 24.6762 7.37991 24.2216C7.37991 12.4035 16.9604 2.823 28.7785 2.823C29.2331 2.823 29.6016 3.19148 29.6016 3.64603C29.6016 4.10057 29.2331 4.46905 28.7785 4.46905C17.8695 4.46905 9.02596 13.3126 9.02596 24.2216C9.02596 24.6762 8.65748 25.0446 8.20293 25.0446Z" fill="#E8AA0A"/>
<path fill-rule="evenodd" clip-rule="evenodd" d="M49.3537 23.3986C49.8083 23.3986 50.1767 23.7671 50.1767 24.2216C50.1767 36.0398 40.5962 45.6203 28.7781 45.6203C28.3236 45.6203 27.9551 45.2518 27.9551 44.7972C27.9551 44.3427 28.3236 43.9742 28.7781 43.9742C39.6872 43.9742 48.5307 35.1307 48.5307 24.2216C48.5307 23.7671 48.8992 23.3986 49.3537 23.3986Z" fill="#E8AA0A"/>
<path d="M45.2374 24.2216C45.2374 33.3125 37.8678 40.6821 28.7769 40.6821C19.686 40.6821 12.3164 33.3125 12.3164 24.2216C12.3164 15.1308 19.686 7.76117 28.7769 7.76117C37.8678 7.76117 45.2374 15.1308 45.2374 24.2216Z" fill="#FFDD28"/>
<path fill-rule="evenodd" clip-rule="evenodd" d="M46.8849 24.2216C46.8849 34.2216 38.7784 42.3282 28.7784 42.3282C18.7784 42.3282 10.6719 34.2216 10.6719 24.2216C10.6719 14.2217 18.7784 6.11511 28.7784 6.11511C38.7784 6.11511 46.8849 14.2217 46.8849 24.2216ZM28.7784 40.6821C37.8693 40.6821 45.2389 33.3125 45.2389 24.2216C45.2389 15.1308 37.8693 7.76116 28.7784 7.76116C19.6875 7.76116 12.3179 15.1308 12.3179 24.2216C12.3179 33.3125 19.6875 40.6821 28.7784 40.6821Z" fill="#E89B05"/>
<path fill-rule="evenodd" clip-rule="evenodd" d="M28.7786 38.2131C36.5058 38.2131 42.77 31.9489 42.77 24.2216C42.77 23.7671 43.1384 23.3986 43.593 23.3986C44.0475 23.3986 44.416 23.7671 44.416 24.2216C44.416 32.858 37.4149 39.8591 28.7786 39.8591C28.324 39.8591 27.9555 39.4906 27.9555 39.0361C27.9555 38.5815 28.324 38.2131 28.7786 38.2131Z" fill="#ECC704"/>
<path fill-rule="evenodd" clip-rule="evenodd" d="M28.7781 10.2302C21.0508 10.2302 14.7867 16.4944 14.7867 24.2216C14.7867 24.6762 14.4182 25.0446 13.9636 25.0446C13.5091 25.0446 13.1406 24.6762 13.1406 24.2216C13.1406 15.5853 20.1418 8.58417 28.7781 8.58417C29.2326 8.58417 29.6011 8.95265 29.6011 9.40719C29.6011 9.86173 29.2326 10.2302 28.7781 10.2302Z" fill="#FFEF9C"/>
<path d="M3.6216 46.134L1.50166 41.8941C1.2708 41.4324 1.60655 40.8892 2.12278 40.8892L11.4156 40.8892C11.7991 40.8892 12.11 41.2001 12.11 41.5836L12.11 51.3056C12.11 51.6891 11.7991 52 11.4156 52L2.12278 52C1.60655 52 1.2708 51.4567 1.50166 50.995L3.6216 46.7551C3.71935 46.5596 3.71935 46.3295 3.6216 46.134Z" fill="#C52229"/>
<path d="M53.9309 46.134L56.0508 41.8941C56.2817 41.4324 55.9459 40.8892 55.4297 40.8892L46.1369 40.8892C45.7534 40.8892 45.4425 41.2001 45.4425 41.5836L45.4425 51.3056C45.4425 51.6891 45.7534 52 46.1369 52L55.4297 52C55.9459 52 56.2817 51.4567 56.0508 50.995L53.9309 46.7551C53.8331 46.5596 53.8331 46.3295 53.9309 46.134Z" fill="#C52229"/>
<path fill-rule="evenodd" clip-rule="evenodd" d="M2.22407 46.4446L0.259418 42.5153C-0.433167 41.1301 0.574074 39.5003 2.12276 39.5003L11.4155 39.5003C12.5661 39.5003 13.4988 40.433 13.4988 41.5836L13.4988 51.3056C13.4988 52.4561 12.5661 53.3888 11.4155 53.3888L2.12276 53.3888C0.574073 53.3888 -0.433167 51.759 0.259418 50.3739L2.22407 46.4446ZM2.37895 46.7543C2.37909 46.7546 2.37922 46.7549 2.37936 46.7551L3.00048 46.4446L2.37935 46.7551L2.37895 46.7543ZM55.3283 46.4446L57.293 42.5153C57.9856 41.1301 56.9783 39.5003 55.4297 39.5003L46.1369 39.5003C44.9863 39.5003 44.0536 40.433 44.0536 41.5836L44.0536 51.3056C44.0536 52.4561 44.9863 53.3888 46.1369 53.3888L55.4297 53.3888C56.9783 53.3888 57.9856 51.7591 57.293 50.3739L55.3283 46.4446ZM56.0508 41.8941L53.9308 46.134C53.8331 46.3295 53.8331 46.5596 53.9308 46.7551L56.0508 50.995C56.2816 51.4567 55.9459 52 55.4297 52L46.1369 52C45.7533 52 45.4424 51.6891 45.4424 51.3056L45.4424 41.5836C45.4424 41.2001 45.7533 40.8892 46.1369 40.8892L55.4297 40.8892C55.9459 40.8892 56.2816 41.4324 56.0508 41.8941ZM1.50164 41.8941L3.62158 46.134C3.71933 46.3295 3.71933 46.5596 3.62158 46.7551L1.50164 50.995C1.27078 51.4567 1.60653 52 2.12276 52L11.4155 52C11.7991 52 12.11 51.6891 12.11 51.3056L12.11 41.5836C12.11 41.2001 11.7991 40.8892 11.4155 40.8892L2.12276 40.8892C1.60653 40.8892 1.27078 41.4324 1.50164 41.8941Z" fill="#9B0F15"/>
<path fill-rule="evenodd" clip-rule="evenodd" d="M2.49561 41.5171C2.62277 41.3154 2.84459 41.193 3.0831 41.193H6.03441C6.41793 41.193 6.72884 41.5039 6.72884 41.8874C6.72884 42.2709 6.41793 42.5818 6.03441 42.5818H4.18498L5.61924 45.5807C5.78471 45.9267 5.63837 46.3413 5.29239 46.5068C4.9464 46.6723 4.53178 46.5259 4.36631 46.18L2.45663 42.187C2.35373 41.9718 2.36844 41.7189 2.49561 41.5171Z" fill="#DF3840"/>
<path d="M48.2207 48.5278L48.2207 38.8059C48.2207 38.4224 47.9098 38.1115 47.5263 38.1115L10.0272 38.1114C9.64373 38.1114 9.33282 38.4224 9.33282 38.8059L9.33282 48.5278C9.33282 48.9114 9.64373 49.2223 10.0272 49.2223L47.5263 49.2223C47.9098 49.2223 48.2207 48.9114 48.2207 48.5278Z" fill="#F1333B"/>
<path fill-rule="evenodd" clip-rule="evenodd" d="M49.6094 38.8059L49.6094 48.5278C49.6094 49.6784 48.6767 50.6111 47.5261 50.6111L10.0271 50.6111C8.87651 50.6111 7.94379 49.6784 7.94379 48.5278L7.94379 38.8059C7.94379 37.6553 8.8765 36.7226 10.0271 36.7226L47.5261 36.7226C48.6767 36.7226 49.6094 37.6553 49.6094 38.8059ZM48.2205 38.8059L48.2205 48.5278C48.2205 48.9114 47.9096 49.2223 47.5261 49.2223L10.0271 49.2223C9.64355 49.2223 9.33264 48.9114 9.33264 48.5278L9.33264 38.8059C9.33264 38.4224 9.64355 38.1114 10.0271 38.1114L47.5261 38.1114C47.9096 38.1114 48.2205 38.4224 48.2205 38.8059Z" fill="#9B0F15"/>
<path d="M46.3017 43.9306C45.9084 43.9306 45.5897 43.6196 45.5897 43.2359C45.5897 42.8523 45.9084 42.5413 46.3017 42.5413C46.6949 42.5413 47.0137 42.8523 47.0137 43.2359C47.0137 43.6196 46.6949 43.9306 46.3017 43.9306Z" fill="#DB1B24"/>
<path d="M43.5929 43.6526C43.1037 43.6526 42.7072 43.2658 42.7072 42.7886C42.7072 42.3114 43.1037 41.9245 43.5929 41.9245C44.082 41.9245 44.4785 42.3114 44.4785 42.7886C44.4785 43.2658 44.082 43.6526 43.5929 43.6526Z" fill="#DB1B24"/>
<path d="M44.7994 45.6282C44.5548 45.6282 44.3565 45.4348 44.3565 45.1962C44.3565 44.9576 44.5548 44.7641 44.7994 44.7641C45.0439 44.7641 45.2422 44.9576 45.2422 45.1962C45.2422 45.4348 45.0439 45.6282 44.7994 45.6282Z" fill="#DB1B24"/>
<path d="M44.0357 41.0588C43.7911 41.0588 43.5929 40.8654 43.5929 40.6268C43.5929 40.3882 43.7911 40.1947 44.0357 40.1947C44.2803 40.1947 44.4785 40.3882 44.4785 40.6268C44.4785 40.8654 44.2803 41.0588 44.0357 41.0588Z" fill="#DB1B24"/>
<path d="M41.7076 45.1962C41.463 45.1962 41.2647 45.0027 41.2647 44.7641C41.2647 44.5255 41.463 44.3321 41.7076 44.3321C41.9521 44.3321 42.1504 44.5255 42.1504 44.7641C42.1504 45.0027 41.9521 45.1962 41.7076 45.1962Z" fill="#DB1B24"/>
<path d="M41.2662 42.9733C41.0216 42.9733 40.8233 42.7799 40.8233 42.5413C40.8233 42.3027 41.0216 42.1093 41.2662 42.1093C41.5107 42.1093 41.709 42.3027 41.709 42.5413C41.709 42.7799 41.5107 42.9733 41.2662 42.9733Z" fill="#DB1B24"/>
<path d="M38.2466 47.9849C38.0021 47.9849 37.8038 47.7915 37.8038 47.5528C37.8038 47.3142 38.0021 47.1208 38.2466 47.1208C38.4912 47.1208 38.6895 47.3142 38.6895 47.5528C38.6895 47.7915 38.4912 47.9849 38.2466 47.9849Z" fill="#DB1B24"/>
<path d="M47.0572 46.3356C46.8126 46.3356 46.6143 46.1422 46.6143 45.9036C46.6143 45.665 46.8126 45.4716 47.0572 45.4716C47.3017 45.4716 47.5 45.665 47.5 45.9036C47.5 46.1422 47.3017 46.3356 47.0572 46.3356Z" fill="#DB1B24"/>
<path d="M42.8711 47.2818C42.4731 47.2818 42.1504 46.967 42.1504 46.5787C42.1504 46.1903 42.4731 45.8755 42.8711 45.8755C43.2691 45.8755 43.5918 46.1903 43.5918 46.5787C43.5918 46.967 43.2691 47.2818 42.8711 47.2818Z" fill="#DB1B24"/>
<path d="M45.9629 47.9848C45.5649 47.9848 45.2422 47.67 45.2422 47.2817C45.2422 46.8934 45.5649 46.5786 45.9629 46.5786C46.3609 46.5786 46.6836 46.8934 46.6836 47.2817C46.6836 47.67 46.3609 47.9848 45.9629 47.9848Z" fill="#DB1B24"/>
<path d="M39.6602 46.6024C39.2622 46.6024 38.9395 46.2876 38.9395 45.8993C38.9395 45.511 39.2622 45.1962 39.6602 45.1962C40.0582 45.1962 40.3809 45.511 40.3809 45.8993C40.3809 46.2876 40.0582 46.6024 39.6602 46.6024Z" fill="#DB1B24"/>
<path d="M40.8228 48.1983C40.5782 48.1983 40.38 48.0049 40.38 47.7663C40.38 47.5277 40.5782 47.3343 40.8228 47.3343C41.0674 47.3343 41.2656 47.5277 41.2656 47.7663C41.2656 48.0049 41.0674 48.1983 40.8228 48.1983Z" fill="#DB1B24"/>
<path fill-rule="evenodd" clip-rule="evenodd" d="M9.76758 39.1097C9.76758 38.7262 10.0785 38.4153 10.462 38.4153H36.503C36.8865 38.4153 37.1974 38.7262 37.1974 39.1097C37.1974 39.4932 36.8865 39.8041 36.503 39.8041H11.1564V44.6651C11.1564 45.0486 10.8455 45.3595 10.462 45.3595C10.0785 45.3595 9.76758 45.0486 9.76758 44.6651V39.1097Z" fill="#FE666D"/>
<path d="M30.5572 30.1871H28.0311V20.4501L25.0156 21.3853V19.3313L30.2862 17.4433H30.5572V30.1871Z" fill="#FFEF9C"/>
<path opacity="0.2" fill-rule="evenodd" clip-rule="evenodd" d="M32.0484 30.1871C32.0484 31.011 31.3806 31.6788 30.5567 31.6788H28.0307C27.2068 31.6788 26.5389 31.011 26.5389 30.1871V22.4746L25.4571 22.8101C25.0043 22.9505 24.5119 22.8674 24.1303 22.5862C23.7487 22.3051 23.5234 21.8593 23.5234 21.3853V19.3313C23.5234 18.7014 23.9191 18.1393 24.5121 17.9269L29.7827 16.0389C29.9441 15.9811 30.1143 15.9516 30.2858 15.9516H30.5567C31.3806 15.9516 32.0484 16.6194 32.0484 17.4433V30.1871ZM28.0307 20.4501V30.1871H30.5567V17.4433H30.2858L25.0152 19.3313V21.3853L28.0307 20.4501Z" fill="#E89B05"/>
</svg>
