<svg width="58" height="54" viewBox="0 0 58 54" fill="none" xmlns="http://www.w3.org/2000/svg">
<path d="M50.9947 24.22C50.9947 36.4918 41.0465 46.44 28.7747 46.44C16.5029 46.44 6.55469 36.4918 6.55469 24.22C6.55469 11.9482 16.5029 2 28.7747 2C41.0465 2 50.9947 11.9482 50.9947 24.22Z" fill="#BCCCD2"/>
<path fill-rule="evenodd" clip-rule="evenodd" d="M52.6401 24.22C52.6401 37.4008 41.9549 48.0859 28.7741 48.0859C15.5933 48.0859 4.9082 37.4008 4.9082 24.22C4.9082 11.0392 15.5933 0.354065 28.7741 0.354065C41.9549 0.354065 52.6401 11.0392 52.6401 24.22ZM28.7741 46.44C41.0459 46.44 50.9941 36.4918 50.9941 24.22C50.9941 11.9482 41.0459 1.99999 28.7741 1.99999C16.5024 1.99999 6.55413 11.9482 6.55413 24.22C6.55413 36.4918 16.5024 46.44 28.7741 46.44Z" fill="#81A5B0"/>
<path fill-rule="evenodd" clip-rule="evenodd" d="M8.20061 25.043C7.7461 25.043 7.37765 24.6745 7.37765 24.22C7.37765 12.4027 16.9574 2.82297 28.7747 2.82297C29.2292 2.82297 29.5977 3.19142 29.5977 3.64593C29.5977 4.10044 29.2292 4.46889 28.7747 4.46889C17.8665 4.46889 9.02358 13.3118 9.02358 24.22C9.02358 24.6745 8.65512 25.043 8.20061 25.043Z" fill="#D0DEE3"/>
<path fill-rule="evenodd" clip-rule="evenodd" d="M49.3482 23.397C49.8027 23.397 50.1712 23.7655 50.1712 24.22C50.1712 36.0373 40.5914 45.617 28.7741 45.617C28.3196 45.617 27.9512 45.2486 27.9512 44.7941C27.9512 44.3396 28.3196 43.9711 28.7741 43.9711C39.6824 43.9711 48.5253 35.1282 48.5253 24.22C48.5253 23.7655 48.8937 23.397 49.3482 23.397Z" fill="#A2B9C1"/>
<path d="M45.2349 24.22C45.2349 33.3102 37.8659 40.6793 28.7757 40.6793C19.6855 40.6793 12.3164 33.3102 12.3164 24.22C12.3164 15.1298 19.6855 7.76074 28.7757 7.76074C37.8659 7.76074 45.2349 15.1298 45.2349 24.22Z" fill="#C7D4D8"/>
<path fill-rule="evenodd" clip-rule="evenodd" d="M46.8803 24.22C46.8803 34.2192 38.7743 42.3252 28.7751 42.3252C18.7759 42.3252 10.6699 34.2192 10.6699 24.22C10.6699 14.2208 18.7759 6.11481 28.7751 6.11481C38.7743 6.11481 46.8803 14.2208 46.8803 24.22ZM28.7751 40.6793C37.8653 40.6793 45.2344 33.3102 45.2344 24.22C45.2344 15.1298 37.8653 7.76073 28.7751 7.76073C19.6849 7.76073 12.3158 15.1298 12.3158 24.22C12.3158 33.3102 19.6849 40.6793 28.7751 40.6793Z" fill="#81A5B0"/>
<path fill-rule="evenodd" clip-rule="evenodd" d="M28.7739 38.2104C36.5005 38.2104 42.7642 31.9467 42.7642 24.22C42.7642 23.7655 43.1327 23.3971 43.5872 23.3971C44.0417 23.3971 44.4102 23.7655 44.4102 24.22C44.4102 32.8557 37.4095 39.8563 28.7739 39.8563C28.3193 39.8563 27.9509 39.4879 27.9509 39.0334C27.9509 38.5788 28.3193 38.2104 28.7739 38.2104Z" fill="#B5C3C8"/>
<path fill-rule="evenodd" clip-rule="evenodd" d="M28.775 10.2296C21.0483 10.2296 14.7846 16.4933 14.7846 24.22C14.7846 24.6745 14.4161 25.0429 13.9616 25.0429C13.5071 25.0429 13.1387 24.6745 13.1387 24.22C13.1387 15.5843 20.1393 8.58368 28.775 8.58368C29.2295 8.58368 29.5979 8.95213 29.5979 9.40664C29.5979 9.86115 29.2295 10.2296 28.775 10.2296Z" fill="#D9EAEF"/>
<path d="M3.62158 46.131L1.5018 41.8914C1.27096 41.4298 1.60668 40.8865 2.12287 40.8865L11.415 40.8865C11.7985 40.8865 12.1093 41.1974 12.1093 41.5809L12.1093 51.3022C12.1093 51.6857 11.7985 51.9965 11.415 51.9965L2.12287 51.9965C1.60668 51.9965 1.27096 51.4533 1.5018 50.9916L3.62158 46.7521C3.71933 46.5566 3.71933 46.3265 3.62158 46.131Z" fill="#C52229"/>
<path d="M53.9271 46.131L56.0469 41.8914C56.2777 41.4298 55.942 40.8865 55.4258 40.8865L46.1337 40.8865C45.7502 40.8865 45.4393 41.1974 45.4393 41.5809L45.4393 51.3022C45.4393 51.6857 45.7502 51.9965 46.1337 51.9965L55.4258 51.9965C55.942 51.9965 56.2777 51.4533 56.0469 50.9916L53.9271 46.7521C53.8294 46.5566 53.8294 46.3265 53.9271 46.131Z" fill="#C52229"/>
<path fill-rule="evenodd" clip-rule="evenodd" d="M2.22426 46.4415L0.259746 42.5125C-0.432785 41.1274 0.574379 39.4977 2.12295 39.4977L11.4151 39.4977C12.5655 39.4977 13.4982 40.4304 13.4982 41.5809L13.4982 51.3021C13.4982 52.4526 12.5655 53.3852 11.4151 53.3852L2.12295 53.3852C0.574378 53.3852 -0.432786 51.7556 0.259746 50.3705L2.22426 46.4415ZM2.37912 46.7512C2.37926 46.7515 2.37939 46.7518 2.37953 46.752L3.0006 46.4415L2.37952 46.752L2.37912 46.7512ZM55.3246 46.4415L57.2891 42.5125C57.9816 41.1274 56.9745 39.4977 55.4259 39.4977L46.1338 39.4977C44.9833 39.4977 44.0507 40.4304 44.0507 41.5809L44.0507 51.3021C44.0507 52.4526 44.9833 53.3852 46.1338 53.3852L55.4259 53.3852C56.9745 53.3852 57.9816 51.7556 57.2891 50.3705L55.3246 46.4415ZM56.047 41.8914L53.9272 46.131C53.8295 46.3264 53.8295 46.5565 53.9272 46.752L56.047 50.9916C56.2778 51.4533 55.9421 51.9965 55.4259 51.9965L46.1338 51.9965C45.7503 51.9965 45.4394 51.6856 45.4394 51.3021L45.4394 41.5809C45.4394 41.1974 45.7503 40.8865 46.1338 40.8865L55.4259 40.8865C55.9421 40.8865 56.2778 41.4297 56.047 41.8914ZM1.50188 41.8914L3.62166 46.131C3.71941 46.3264 3.71941 46.5565 3.62166 46.752L1.50188 50.9916C1.27104 51.4533 1.60676 51.9965 2.12295 51.9965L11.4151 51.9965C11.7985 51.9965 12.1094 51.6856 12.1094 51.3021L12.1094 41.5809C12.1094 41.1974 11.7985 40.8865 11.4151 40.8865L2.12295 40.8865C1.60676 40.8865 1.27104 41.4297 1.50188 41.8914Z" fill="#9B0F15"/>
<path fill-rule="evenodd" clip-rule="evenodd" d="M2.4956 41.5145C2.62276 41.3127 2.84456 41.1903 3.08305 41.1903H6.03414C6.41763 41.1903 6.72852 41.5012 6.72852 41.8847C6.72852 42.2682 6.41763 42.5791 6.03414 42.5791H4.18484L5.619 45.5777C5.78446 45.9237 5.63813 46.3383 5.29217 46.5038C4.94621 46.6692 4.53162 46.5229 4.36616 46.1769L2.45663 42.1843C2.35373 41.9691 2.36845 41.7162 2.4956 41.5145Z" fill="#DF3840"/>
<path d="M48.2168 48.5246L48.2168 38.8034C48.2168 38.4199 47.9059 38.109 47.5224 38.109L10.0262 38.109C9.64268 38.109 9.3318 38.4199 9.3318 38.8034L9.3318 48.5246C9.3318 48.9081 9.64268 49.219 10.0262 49.219L47.5224 49.219C47.9059 49.219 48.2168 48.9081 48.2168 48.5246Z" fill="#F1333B"/>
<path fill-rule="evenodd" clip-rule="evenodd" d="M49.6055 38.8034L49.6055 48.5247C49.6055 49.6751 48.6728 50.6078 47.5223 50.6078L10.0261 50.6078C8.87561 50.6078 7.94297 49.6751 7.94297 48.5246L7.94297 38.8034C7.94297 37.6529 8.87561 36.7203 10.0261 36.7203L47.5223 36.7203C48.6728 36.7203 49.6055 37.6529 49.6055 38.8034ZM48.2167 38.8034L48.2167 48.5247C48.2167 48.9081 47.9058 49.219 47.5223 49.219L10.0261 49.219C9.6426 49.219 9.33172 48.9081 9.33172 48.5246L9.33172 38.8034C9.33172 38.4199 9.6426 38.109 10.0261 38.109L47.5223 38.109C47.9058 38.109 48.2167 38.4199 48.2167 38.8034Z" fill="#9B0F15"/>
<path d="M46.2998 43.9277C45.9066 43.9277 45.5878 43.6167 45.5878 43.2331C45.5878 42.8495 45.9066 42.5385 46.2998 42.5385C46.693 42.5385 47.0117 42.8495 47.0117 43.2331C47.0117 43.6167 46.693 43.9277 46.2998 43.9277Z" fill="#DB1B24"/>
<path d="M43.591 43.6498C43.1019 43.6498 42.7054 43.263 42.7054 42.7858C42.7054 42.3086 43.1019 41.9218 43.591 41.9218C44.0801 41.9218 44.4766 42.3086 44.4766 42.7858C44.4766 43.263 44.0801 43.6498 43.591 43.6498Z" fill="#DB1B24"/>
<path d="M44.7974 45.6252C44.5529 45.6252 44.3546 45.4318 44.3546 45.1932C44.3546 44.9546 44.5529 44.7612 44.7974 44.7612C45.042 44.7612 45.2402 44.9546 45.2402 45.1932C45.2402 45.4318 45.042 45.6252 44.7974 45.6252Z" fill="#DB1B24"/>
<path d="M44.0338 41.0561C43.7892 41.0561 43.591 40.8627 43.591 40.6241C43.591 40.3856 43.7892 40.1921 44.0338 40.1921C44.2783 40.1921 44.4766 40.3856 44.4766 40.6241C44.4766 40.8627 44.2783 41.0561 44.0338 41.0561Z" fill="#DB1B24"/>
<path d="M41.7076 45.1932C41.463 45.1932 41.2648 44.9997 41.2648 44.7612C41.2648 44.5226 41.463 44.3292 41.7076 44.3292C41.9521 44.3292 42.1504 44.5226 42.1504 44.7612C42.1504 44.9997 41.9521 45.1932 41.7076 45.1932Z" fill="#DB1B24"/>
<path d="M41.2642 42.9706C41.0197 42.9706 40.8214 42.7772 40.8214 42.5386C40.8214 42.3 41.0197 42.1066 41.2642 42.1066C41.5088 42.1066 41.707 42.3 41.707 42.5386C41.707 42.7772 41.5088 42.9706 41.2642 42.9706Z" fill="#DB1B24"/>
<path d="M38.2447 47.9817C38.0002 47.9817 37.8019 47.7883 37.8019 47.5497C37.8019 47.3111 38.0002 47.1177 38.2447 47.1177C38.4893 47.1177 38.6875 47.3111 38.6875 47.5497C38.6875 47.7883 38.4893 47.9817 38.2447 47.9817Z" fill="#DB1B24"/>
<path d="M47.0553 46.3326C46.8107 46.3326 46.6125 46.1392 46.6125 45.9006C46.6125 45.662 46.8107 45.4686 47.0553 45.4686C47.2998 45.4686 47.498 45.662 47.498 45.9006C47.498 46.1392 47.2998 46.3326 47.0553 46.3326Z" fill="#DB1B24"/>
<path d="M42.8712 47.2787C42.4732 47.2787 42.1505 46.9639 42.1505 46.5756C42.1505 46.1873 42.4732 45.8726 42.8712 45.8726C43.2692 45.8726 43.5918 46.1873 43.5918 46.5756C43.5918 46.9639 43.2692 47.2787 42.8712 47.2787Z" fill="#DB1B24"/>
<path d="M45.961 47.9817C45.563 47.9817 45.2404 47.6669 45.2404 47.2786C45.2404 46.8903 45.563 46.5756 45.961 46.5756C46.359 46.5756 46.6816 46.8903 46.6816 47.2786C46.6816 47.6669 46.359 47.9817 45.961 47.9817Z" fill="#DB1B24"/>
<path d="M39.6583 46.5993C39.2603 46.5993 38.9376 46.2846 38.9376 45.8963C38.9376 45.508 39.2603 45.1932 39.6583 45.1932C40.0563 45.1932 40.3789 45.508 40.3789 45.8963C40.3789 46.2846 40.0563 46.5993 39.6583 46.5993Z" fill="#DB1B24"/>
<path d="M40.8209 48.1952C40.5763 48.1952 40.3781 48.0018 40.3781 47.7632C40.3781 47.5246 40.5763 47.3312 40.8209 47.3312C41.0654 47.3312 41.2637 47.5246 41.2637 47.7632C41.2637 48.0018 41.0654 48.1952 40.8209 48.1952Z" fill="#DB1B24"/>
<path fill-rule="evenodd" clip-rule="evenodd" d="M9.76562 39.1072C9.76562 38.7237 10.0765 38.4128 10.46 38.4128H36.4991C36.8826 38.4128 37.1934 38.7237 37.1934 39.1072C37.1934 39.4906 36.8826 39.8015 36.4991 39.8015H11.1544V44.6622C11.1544 45.0456 10.8435 45.3565 10.46 45.3565C10.0765 45.3565 9.76562 45.0456 9.76562 44.6622V39.1072Z" fill="#FE666D"/>
<path d="M33.1439 30.185H24.4214V28.4545L28.538 24.067C29.1031 23.4494 29.5197 22.9104 29.7878 22.4501C30.0616 21.9898 30.1985 21.5528 30.1985 21.1391C30.1985 20.5739 30.0558 20.1311 29.7703 19.8106C29.4848 19.4843 29.0769 19.3212 28.5467 19.3212C27.9757 19.3212 27.5241 19.5193 27.192 19.9155C26.8657 20.3059 26.7026 20.8216 26.7026 21.4625H24.168C24.168 20.6875 24.3515 19.9796 24.7186 19.3387C25.0915 18.6978 25.6159 18.1967 26.2918 17.8354C26.9677 17.4683 27.7339 17.2848 28.5904 17.2848C29.9014 17.2848 30.9181 17.5994 31.6406 18.2287C32.369 18.858 32.7331 19.7465 32.7331 20.8944C32.7331 21.5237 32.57 22.1646 32.2437 22.8172C31.9174 23.4698 31.358 24.2301 30.5656 25.0983L27.6727 28.1486H33.1439V30.185Z" fill="#D9EAEF"/>
<path fill-rule="evenodd" clip-rule="evenodd" d="M34.635 30.185C34.635 31.0088 33.9671 31.6766 33.1433 31.6766H24.4209C23.5971 31.6766 22.9292 31.0088 22.9292 30.185V28.4544C22.9292 28.0753 23.0736 27.7103 23.3331 27.4338L27.4431 23.0533C27.9687 22.4783 28.3058 22.0299 28.4982 21.6995L28.5053 21.6874C28.6815 21.3913 28.7064 21.2162 28.7064 21.1391C28.7064 20.9797 28.686 20.8865 28.6712 20.8407C28.6687 20.8329 28.6664 20.8265 28.6643 20.8212C28.6404 20.8171 28.6021 20.8128 28.5461 20.8128C28.4346 20.8128 28.3878 20.8316 28.3784 20.8357C28.3726 20.8383 28.3686 20.8407 28.3642 20.844C28.3597 20.8474 28.3498 20.8556 28.3352 20.8729C28.2863 20.9318 28.1936 21.0798 28.1936 21.4625C28.1936 22.2863 27.5258 22.9541 26.702 22.9541H24.1674C23.3436 22.9541 22.6758 22.2863 22.6758 21.4625C22.6758 20.4408 22.9209 19.4752 23.4237 18.5973L23.4287 18.5885C23.9448 17.7015 24.6744 17.0092 25.5837 16.5222C26.5009 16.0251 27.5151 15.7932 28.5898 15.7932C30.1268 15.7932 31.5379 16.1628 32.6175 17.1019C33.7357 18.0693 34.2242 19.4058 34.2242 20.8944C34.2242 21.7895 33.9906 22.6576 33.5773 23.4842C33.1637 24.3114 32.5027 25.188 31.6668 26.1039C31.6603 26.1109 31.6539 26.1179 31.6473 26.1248L31.1426 26.6569H33.1433C33.9671 26.6569 34.635 27.3247 34.635 28.1485V30.185ZM27.6721 28.1485L30.5651 25.0983C31.3575 24.2301 31.9168 23.4698 32.2431 22.8172C32.5694 22.1646 32.7326 21.5237 32.7326 20.8944C32.7326 19.7465 32.3684 18.858 31.6401 18.2287C30.9176 17.5994 29.9008 17.2848 28.5898 17.2848C27.7333 17.2848 26.9671 17.4683 26.2912 17.8354C25.6153 18.1966 25.0909 18.6977 24.718 19.3387C24.6012 19.5426 24.503 19.7533 24.4234 19.9709C24.2527 20.4369 24.1674 20.9341 24.1674 21.4625H26.702C26.702 20.8215 26.8651 20.3059 27.1914 19.9155C27.5235 19.5193 27.9751 19.3212 28.5461 19.3212C29.0763 19.3212 29.4842 19.4843 29.7697 19.8106C30.0552 20.1311 30.198 20.5739 30.198 21.1391C30.198 21.5528 30.0611 21.9898 29.7872 22.4501C29.5192 22.9104 29.1026 23.4494 28.5374 24.067L24.4209 28.4544V30.185H33.1433V28.1485H27.6721Z" fill="#81A5B0"/>
</svg>
