<svg width="24" height="25" viewBox="0 0 24 25" fill="none" xmlns="http://www.w3.org/2000/svg">
<path d="M4 9.5C4 8.55719 4 8.08579 4.29289 7.79289C4.58579 7.5 5.05719 7.5 6 7.5H18C18.9428 7.5 19.4142 7.5 19.7071 7.79289C20 8.08579 20 8.55719 20 9.5V13.5C20 17.2712 20 19.1569 18.8284 20.3284C17.6569 21.5 15.7712 21.5 12 21.5V21.5C8.22876 21.5 6.34315 21.5 5.17157 20.3284C4 19.1569 4 17.2712 4 13.5V9.5Z" stroke="white" stroke-width="2" stroke-linecap="round"/>
<rect x="2" y="3.5" width="20" height="4" rx="1" stroke="white" stroke-width="2" stroke-linecap="round"/>
<path d="M10 11.5H14" stroke="white" stroke-width="2" stroke-linecap="round"/>
</svg>
