<svg width="24" height="24" viewBox="0 0 24 24" fill="none" xmlns="http://www.w3.org/2000/svg">
<path d="M5 11C5 9.11438 5 8.17157 5.58579 7.58579C6.17157 7 7.11438 7 9 7H15C16.8856 7 17.8284 7 18.4142 7.58579C19 8.17157 19 9.11438 19 11V14C19 16.8089 19 18.2134 18.3259 19.2223C18.034 19.659 17.659 20.034 17.2223 20.3259C16.2134 21 14.8089 21 12 21V21C9.19108 21 7.78661 21 6.77772 20.3259C6.34096 20.034 5.96596 19.659 5.67412 19.2223C5 18.2134 5 16.8089 5 14V11Z" stroke="white" stroke-width="2" stroke-linecap="round"/>
<path d="M15 6V5C15 4.05719 15 3.58579 14.7071 3.29289C14.4142 3 13.9428 3 13 3H11C10.0572 3 9.58579 3 9.29289 3.29289C9 3.58579 9 4.05719 9 5V6" stroke="white" stroke-width="2" stroke-linecap="round"/>
<path d="M4 7H20" stroke="white" stroke-width="2" stroke-linecap="round"/>
<path d="M10 11V17" stroke="white" stroke-width="2" stroke-linecap="round"/>
<path d="M14 11V17" stroke="white" stroke-width="2" stroke-linecap="round"/>
</svg>
