<svg width="24" height="25" viewBox="0 0 24 25" fill="none" xmlns="http://www.w3.org/2000/svg">
<path d="M17 18.5H18.75V18.5C18.9822 18.5 19.0983 18.5 19.196 18.4904C20.1456 18.3968 20.8968 17.6456 20.9904 16.696C21 16.5983 21 16.4822 21 16.25V13.5C21 11.6144 21 10.6716 20.4142 10.0858C19.8284 9.5 18.8856 9.5 17 9.5H7C5.11438 9.5 4.17157 9.5 3.58579 10.0858C3 10.6716 3 11.6144 3 13.5V16.25C3 16.4822 3 16.5983 3.00963 16.696C3.10315 17.6456 3.85441 18.3968 4.80397 18.4904C4.90175 18.5 5.01783 18.5 5.25 18.5V18.5H7" stroke="white" stroke-width="2" stroke-linecap="round"/>
<rect x="7" y="14.5" width="10" height="7" rx="2" stroke="white" stroke-width="2" stroke-linecap="round"/>
<path d="M7 7.5C7 5.61438 7 4.67157 7.58579 4.08579C8.17157 3.5 9.11438 3.5 11 3.5H13C14.8856 3.5 15.8284 3.5 16.4142 4.08579C17 4.67157 17 5.61438 17 7.5V9.5H7V7.5Z" stroke="white" stroke-width="2" stroke-linecap="round"/>
</svg>
