<svg width="60" height="54" viewBox="0 0 60 54" fill="none" xmlns="http://www.w3.org/2000/svg">
<path d="M53.1992 24.2216C53.1992 36.4942 42.8126 46.4431 30 46.4431C17.1874 46.4431 6.80078 36.4942 6.80078 24.2216C6.80078 11.9489 17.1874 2 30 2C42.8126 2 53.1992 11.9489 53.1992 24.2216Z" fill="#DCA16A"/>
<path fill-rule="evenodd" clip-rule="evenodd" d="M54.9174 24.2215C54.9174 37.4033 43.7614 48.0892 29.9997 48.0892C16.2381 48.0892 5.08203 37.4033 5.08203 24.2215C5.08203 11.0398 16.2381 0.353943 29.9997 0.353943C43.7614 0.353943 54.9174 11.0398 54.9174 24.2215ZM29.9997 46.4431C42.8123 46.4431 53.1989 36.4942 53.1989 24.2215C53.1989 11.9489 42.8123 1.99998 29.9997 1.99998C17.1871 1.99998 6.80049 11.9489 6.80049 24.2215C6.80049 36.4942 17.1871 46.4431 29.9997 46.4431Z" fill="#C38144"/>
<path fill-rule="evenodd" clip-rule="evenodd" d="M8.51938 25.0446C8.04484 25.0446 7.66015 24.6761 7.66015 24.2215C7.66015 12.4034 17.6621 2.82299 30.0001 2.82299C30.4747 2.82299 30.8594 3.19147 30.8594 3.64601C30.8594 4.10055 30.4747 4.46903 30.0001 4.46903C18.6112 4.46903 9.37861 13.3125 9.37861 24.2215C9.37861 24.6761 8.99392 25.0446 8.51938 25.0446Z" fill="#F0B57F"/>
<path fill-rule="evenodd" clip-rule="evenodd" d="M51.4806 23.3986C51.9552 23.3986 52.3399 23.767 52.3399 24.2216C52.3399 36.0397 42.3379 45.6201 29.9999 45.6201C29.5253 45.6201 29.1406 45.2516 29.1406 44.7971C29.1406 44.3426 29.5253 43.9741 29.9999 43.9741C41.3888 43.9741 50.6214 35.1306 50.6214 24.2216C50.6214 23.767 51.0061 23.3986 51.4806 23.3986Z" fill="#CF945D"/>
<path d="M47.1837 24.2216C47.1837 33.3124 39.4899 40.682 29.9991 40.682C20.5083 40.682 12.8145 33.3124 12.8145 24.2216C12.8145 15.1307 20.5083 7.76117 29.9991 7.76117C39.4899 7.76117 47.1837 15.1307 47.1837 24.2216Z" fill="#F7BA82"/>
<path fill-rule="evenodd" clip-rule="evenodd" d="M48.9038 24.2216C48.9038 34.2215 40.4406 42.328 30.0007 42.328C19.5609 42.328 11.0977 34.2215 11.0977 24.2216C11.0977 14.2217 19.5609 6.11511 30.0007 6.11511C40.4406 6.11511 48.9038 14.2217 48.9038 24.2216ZM30.0007 40.682C39.4915 40.682 47.1853 33.3124 47.1853 24.2216C47.1853 15.1307 39.4915 7.76115 30.0007 7.76115C20.5099 7.76115 12.8161 15.1307 12.8161 24.2216C12.8161 33.3124 20.5099 40.682 30.0007 40.682Z" fill="#C38144"/>
<path fill-rule="evenodd" clip-rule="evenodd" d="M30.0008 38.2129C38.068 38.2129 44.6077 31.9488 44.6077 24.2215C44.6077 23.767 44.9924 23.3985 45.4669 23.3985C45.9415 23.3985 46.3262 23.767 46.3262 24.2215C46.3262 32.8578 39.0171 39.8589 30.0008 39.8589C29.5263 39.8589 29.1416 39.4905 29.1416 39.0359C29.1416 38.5814 29.5263 38.2129 30.0008 38.2129Z" fill="#E6A66C"/>
<path fill-rule="evenodd" clip-rule="evenodd" d="M29.9992 10.2302C21.932 10.2302 15.3923 16.4944 15.3923 24.2216C15.3923 24.6761 15.0076 25.0446 14.5331 25.0446C14.0585 25.0446 13.6738 24.6761 13.6738 24.2216C13.6738 15.5853 20.983 8.58417 29.9992 8.58417C30.4737 8.58417 30.8584 8.95265 30.8584 9.40719C30.8584 9.86173 30.4737 10.2302 29.9992 10.2302Z" fill="#FFD5AE"/>
<path d="M3.73765 46.1341L1.52446 41.8943C1.28344 41.4325 1.63396 40.8893 2.17289 40.8893L11.8745 40.8893C12.2749 40.8893 12.5995 41.2002 12.5995 41.5837L12.5995 51.3056C12.5995 51.6892 12.2749 52.0001 11.8745 52.0001L2.17289 52.0001C1.63396 52.0001 1.28344 51.4568 1.52446 50.9951L3.73765 46.7552C3.83971 46.5597 3.83971 46.3296 3.73765 46.1341Z" fill="#C52229"/>
<path d="M56.2601 46.1341L58.4733 41.8943C58.7143 41.4325 58.3638 40.8893 57.8249 40.8893L48.1233 40.8893C47.7229 40.8893 47.3983 41.2002 47.3983 41.5837L47.3983 51.3056C47.3983 51.6892 47.7229 52.0001 48.1233 52.0001L57.8249 52.0001C58.3638 52.0001 58.7143 51.4568 58.4733 50.9951L56.2601 46.7552C56.1581 46.5597 56.1581 46.3296 56.2601 46.1341Z" fill="#C52229"/>
<path fill-rule="evenodd" clip-rule="evenodd" d="M2.27801 46.4447L0.226929 42.5154C-0.496124 41.1302 0.555428 39.5004 2.17224 39.5004L11.8738 39.5004C13.075 39.5004 14.0488 40.4331 14.0488 41.5837L14.0488 51.3056C14.0488 52.4562 13.075 53.3889 11.8738 53.3889L2.17224 53.3889C0.555427 53.3889 -0.496125 51.7591 0.226928 50.374L2.27801 46.4447ZM2.4397 46.7544C2.43985 46.7547 2.43999 46.755 2.44013 46.7552L3.08857 46.4447L2.44012 46.7552L2.4397 46.7544ZM57.7184 46.4447L59.7695 42.5154C60.4926 41.1302 59.441 39.5004 57.8242 39.5004L48.1226 39.5004C46.9214 39.5004 45.9477 40.4331 45.9477 41.5837L45.9477 51.3056C45.9477 52.4562 46.9214 53.3889 48.1226 53.3889L57.8242 53.3889C59.441 53.3889 60.4926 51.7591 59.7695 50.374L57.7184 46.4447ZM58.4727 41.8943L56.2595 46.1341C56.1574 46.3296 56.1574 46.5597 56.2595 46.7552L58.4727 50.9951C58.7137 51.4568 58.3632 52.0001 57.8242 52.0001L48.1226 52.0001C47.7222 52.0001 47.3976 51.6892 47.3976 51.3056L47.3976 41.5837C47.3976 41.2002 47.7222 40.8893 48.1226 40.8893L57.8242 40.8893C58.3632 40.8893 58.7137 41.4325 58.4727 41.8943ZM1.5238 41.8943L3.737 46.1341C3.83905 46.3296 3.83905 46.5597 3.737 46.7552L1.5238 50.9951C1.28279 51.4568 1.6333 52.0001 2.17224 52.0001L11.8738 52.0001C12.2742 52.0001 12.5988 51.6891 12.5988 51.3056L12.5988 41.5837C12.5988 41.2002 12.2742 40.8893 11.8738 40.8893L2.17224 40.8893C1.6333 40.8893 1.28279 41.4325 1.5238 41.8943Z" fill="#9B0F15"/>
<path fill-rule="evenodd" clip-rule="evenodd" d="M2.56086 41.5172C2.69362 41.3155 2.9252 41.1931 3.1742 41.1931H6.25534C6.65573 41.1931 6.98032 41.504 6.98032 41.8875C6.98032 42.271 6.65573 42.5819 6.25534 42.5819H4.32455L5.8219 45.5808C5.99466 45.9268 5.84188 46.3414 5.48067 46.5069C5.11946 46.6723 4.6866 46.526 4.51385 46.18L2.52017 42.1871C2.41274 41.9719 2.4281 41.719 2.56086 41.5172Z" fill="#DF3840"/>
<path d="M50.2988 48.5279L50.2988 38.806C50.2988 38.4225 49.9742 38.1116 49.5739 38.1116L10.4252 38.1116C10.0248 38.1116 9.7002 38.4225 9.7002 38.806L9.70019 48.5279C9.70019 48.9114 10.0248 49.2224 10.4252 49.2224L49.5739 49.2224C49.9742 49.2224 50.2988 48.9114 50.2988 48.5279Z" fill="#F1333B"/>
<path fill-rule="evenodd" clip-rule="evenodd" d="M51.748 38.806L51.748 48.5279C51.748 49.6785 50.7743 50.6112 49.5731 50.6112L10.4244 50.6112C9.22326 50.6112 8.24951 49.6785 8.24951 48.5279L8.24951 38.806C8.24951 37.6554 9.22326 36.7227 10.4244 36.7227L49.5731 36.7227C50.7743 36.7227 51.748 37.6554 51.748 38.806ZM50.2981 38.806L50.2981 48.5279C50.2981 48.9114 49.9735 49.2223 49.5731 49.2223L10.4244 49.2223C10.024 49.2223 9.69946 48.9114 9.69946 48.5279L9.69946 38.806C9.69946 38.4225 10.024 38.1116 10.4244 38.1116L49.5731 38.1116C49.9735 38.1116 50.2981 38.4225 50.2981 38.806Z" fill="#9B0F15"/>
<path d="M48.2957 43.9306C47.8852 43.9306 47.5524 43.6197 47.5524 43.236C47.5524 42.8524 47.8852 42.5414 48.2957 42.5414C48.7063 42.5414 49.0391 42.8524 49.0391 43.236C49.0391 43.6197 48.7063 43.9306 48.2957 43.9306Z" fill="#DB1B24"/>
<path d="M45.468 43.6527C44.9573 43.6527 44.5433 43.2659 44.5433 42.7887C44.5433 42.3115 44.9573 41.9246 45.468 41.9246C45.9786 41.9246 46.3926 42.3115 46.3926 42.7887C46.3926 43.2659 45.9786 43.6527 45.468 43.6527Z" fill="#DB1B24"/>
<path d="M46.7271 45.6283C46.4718 45.6283 46.2648 45.4349 46.2648 45.1962C46.2648 44.9576 46.4718 44.7642 46.7271 44.7642C46.9825 44.7642 47.1895 44.9576 47.1895 45.1962C47.1895 45.4349 46.9825 45.6283 46.7271 45.6283Z" fill="#DB1B24"/>
<path d="M45.9303 41.0589C45.6749 41.0589 45.468 40.8655 45.468 40.6269C45.468 40.3882 45.6749 40.1948 45.9303 40.1948C46.1856 40.1948 46.3926 40.3882 46.3926 40.6269C46.3926 40.8655 46.1856 41.0589 45.9303 41.0589Z" fill="#DB1B24"/>
<path d="M43.5006 45.1962C43.2453 45.1962 43.0383 45.0028 43.0383 44.7642C43.0383 44.5256 43.2453 44.3322 43.5006 44.3322C43.7559 44.3322 43.9629 44.5256 43.9629 44.7642C43.9629 45.0028 43.7559 45.1962 43.5006 45.1962Z" fill="#DB1B24"/>
<path d="M43.0377 42.9734C42.7824 42.9734 42.5754 42.78 42.5754 42.5414C42.5754 42.3028 42.7824 42.1094 43.0377 42.1094C43.293 42.1094 43.5 42.3028 43.5 42.5414C43.5 42.78 43.293 42.9734 43.0377 42.9734Z" fill="#DB1B24"/>
<path d="M39.8873 47.9849C39.632 47.9849 39.425 47.7915 39.425 47.5529C39.425 47.3143 39.632 47.1208 39.8873 47.1208C40.1426 47.1208 40.3496 47.3143 40.3496 47.5529C40.3496 47.7915 40.1426 47.9849 39.8873 47.9849Z" fill="#DB1B24"/>
<path d="M49.0846 46.3357C48.8292 46.3357 48.6223 46.1422 48.6223 45.9036C48.6223 45.665 48.8292 45.4716 49.0846 45.4716C49.3399 45.4716 49.5469 45.665 49.5469 45.9036C49.5469 46.1422 49.3399 46.3357 49.0846 46.3357Z" fill="#DB1B24"/>
<path d="M44.7144 47.2818C44.2989 47.2818 43.962 46.967 43.962 46.5787C43.962 46.1904 44.2989 45.8756 44.7144 45.8756C45.1299 45.8756 45.4668 46.1904 45.4668 46.5787C45.4668 46.967 45.1299 47.2818 44.7144 47.2818Z" fill="#DB1B24"/>
<path d="M47.9429 47.9849C47.5274 47.9849 47.1905 47.6701 47.1905 47.2818C47.1905 46.8935 47.5274 46.5787 47.9429 46.5787C48.3585 46.5787 48.6953 46.8935 48.6953 47.2818C48.6953 47.6701 48.3585 47.9849 47.9429 47.9849Z" fill="#DB1B24"/>
<path d="M41.3609 46.6024C40.9454 46.6024 40.6085 46.2876 40.6085 45.8993C40.6085 45.511 40.9454 45.1962 41.3609 45.1962C41.7764 45.1962 42.1133 45.511 42.1133 45.8993C42.1133 46.2876 41.7764 46.6024 41.3609 46.6024Z" fill="#DB1B24"/>
<path d="M42.5768 48.1984C42.3214 48.1984 42.1144 48.005 42.1144 47.7664C42.1144 47.5278 42.3214 47.3344 42.5768 47.3344C42.8321 47.3344 43.0391 47.5278 43.0391 47.7664C43.0391 48.005 42.8321 48.1984 42.5768 48.1984Z" fill="#DB1B24"/>
<path fill-rule="evenodd" clip-rule="evenodd" d="M10.1523 39.1098C10.1523 38.7263 10.4769 38.4154 10.8773 38.4154H38.0639C38.4643 38.4154 38.7889 38.7263 38.7889 39.1098C38.7889 39.4933 38.4643 39.8043 38.0639 39.8043H11.6023V44.6652C11.6023 45.0487 11.2777 45.3596 10.8773 45.3596C10.4769 45.3596 10.1523 45.0487 10.1523 44.6652V39.1098Z" fill="#FE666D"/>
<path d="M28.133 22.7051H29.5383C30.2075 22.7051 30.7033 22.5449 31.0257 22.2244C31.3481 21.9039 31.5093 21.4785 31.5093 20.9483C31.5093 20.4355 31.3481 20.0363 31.0257 19.7508C30.7094 19.4653 30.2713 19.3225 29.7117 19.3225C29.2068 19.3225 28.784 19.4565 28.4433 19.7246C28.1026 19.9868 27.9323 20.3306 27.9323 20.756H25.2951C25.2951 20.0917 25.4807 19.4973 25.8517 18.9729C26.2289 18.4426 26.7521 18.0289 27.4213 17.7317C28.0965 17.4345 28.8387 17.2859 29.6478 17.2859C31.0531 17.2859 32.1542 17.6094 32.9511 18.2562C33.748 18.8971 34.1465 19.7828 34.1465 20.9133C34.1465 21.496 33.9609 22.0321 33.5899 22.5216C33.2188 23.011 32.7321 23.3869 32.1298 23.6491C32.8781 23.9055 33.4347 24.2901 33.7997 24.8028C34.1708 25.3156 34.3564 25.9216 34.3564 26.6209C34.3564 27.7513 33.9244 28.6574 33.0606 29.3392C32.2028 30.021 31.0652 30.3619 29.6478 30.3619C28.3216 30.3619 27.2357 30.0268 26.3901 29.3567C25.5506 28.6866 25.1309 27.8009 25.1309 26.6996H27.768C27.768 27.1774 27.9536 27.5678 28.3247 27.8708C28.7018 28.1738 29.1642 28.3253 29.7117 28.3253C30.3383 28.3253 30.828 28.168 31.1808 27.8533C31.5397 27.5328 31.7192 27.1104 31.7192 26.5859C31.7192 25.3156 30.9892 24.6805 29.5292 24.6805H28.133V22.7051Z" fill="#FFD5AE"/>
<path fill-rule="evenodd" clip-rule="evenodd" d="M26.651 22.2477H25.2958C24.4357 22.2477 23.7385 21.5798 23.7385 20.756C23.7385 19.8086 24.0087 18.9198 24.5633 18.136L24.5654 18.133C25.1167 17.358 25.8691 16.7771 26.7669 16.3784L26.7718 16.3762C27.6686 15.9816 28.6351 15.7943 29.6485 15.7943C31.2932 15.7943 32.7938 16.174 33.9559 17.1159C35.1532 18.0802 35.7046 19.4095 35.7046 20.9133C35.7046 21.8235 35.4071 22.6642 34.8507 23.3981C34.8147 23.4456 34.7779 23.4924 34.7404 23.5383C34.8629 23.6695 34.9776 23.8091 35.0837 23.9577C35.6545 24.7486 35.9144 25.658 35.9144 26.6209C35.9144 28.1682 35.2971 29.5066 34.0538 30.4888C32.848 31.4463 31.3274 31.8536 29.6485 31.8536C28.0384 31.8536 26.578 31.4411 25.3981 30.5061L25.3938 30.5027C24.1786 29.5326 23.5742 28.2171 23.5742 26.6996C23.5742 25.8757 24.2715 25.2079 25.1316 25.2079H26.6765C26.6118 25.0439 26.5764 24.8662 26.5764 24.6805V22.7051C26.5764 22.5456 26.6025 22.3919 26.651 22.2477ZM29.226 26.1722C29.2907 26.3362 29.3261 26.5139 29.3261 26.6996C29.3261 26.712 29.3266 26.7216 29.3273 26.7285C29.3286 26.7296 29.33 26.7308 29.3315 26.7321C29.3963 26.7829 29.4932 26.8336 29.7124 26.8336C29.892 26.8336 29.999 26.8108 30.0544 26.793C30.1005 26.7782 30.1157 26.7657 30.1196 26.7622M29.226 26.1722H29.5299C29.9169 26.1722 30.0747 26.236 30.1177 26.2581C30.1187 26.2604 30.1198 26.2631 30.121 26.2662C30.1356 26.3042 30.1626 26.4014 30.1626 26.586C30.1626 26.684 30.1462 26.7259 30.1428 26.7339C30.1407 26.7388 30.1392 26.7413 30.1377 26.7432C30.1362 26.7453 30.131 26.752 30.1196 26.7622M33.0613 29.3392C33.9252 28.6575 34.3571 27.7514 34.3571 26.6209C34.3571 25.9217 34.1715 25.3157 33.8004 24.8029C33.7404 24.7185 33.6751 24.6375 33.6046 24.56C33.247 24.1669 32.7556 23.8633 32.1305 23.6491C32.6938 23.4039 33.156 23.0592 33.5171 22.6151C33.5421 22.5844 33.5666 22.5532 33.5906 22.5216C33.9617 22.0321 34.1472 21.496 34.1472 20.9133C34.1472 19.7829 33.7487 18.8972 32.9518 18.2562C32.1549 17.6094 31.0538 17.286 29.6485 17.286C28.8394 17.286 28.0972 17.4346 27.422 17.7317C26.7528 18.0289 26.2296 18.4426 25.8525 18.9729C25.7854 19.0677 25.7243 19.1649 25.6694 19.2643C25.4203 19.7146 25.2958 20.2118 25.2958 20.756H27.933C27.933 20.3306 28.1033 19.9868 28.444 19.7246C28.7847 19.4566 29.2075 19.3225 29.7124 19.3225C30.2721 19.3225 30.7101 19.4653 31.0264 19.7508C31.3488 20.0363 31.51 20.4355 31.51 20.9483C31.51 21.4785 31.3488 21.9039 31.0264 22.2244C30.704 22.5449 30.2082 22.7051 29.539 22.7051H28.1337V24.6805H29.5299C30.9899 24.6805 31.7199 25.3157 31.7199 26.586C31.7199 27.1104 31.5405 27.5328 31.1815 27.8533C30.8287 28.168 30.339 28.3253 29.7124 28.3253C29.1649 28.3253 28.7025 28.1738 28.3254 27.8708C27.9543 27.5678 27.7687 27.1774 27.7687 26.6996H25.1316C25.1316 27.2508 25.2367 27.7481 25.4471 28.1913C25.657 28.6336 25.9715 29.022 26.3908 29.3567C27.2364 30.0268 28.3223 30.3619 29.6485 30.3619C31.0659 30.3619 32.2035 30.021 33.0613 29.3392ZM29.4158 21.2134C29.455 21.0965 29.4797 20.9733 29.4876 20.8458C29.5288 20.8295 29.5969 20.8143 29.7124 20.8143C29.8366 20.8143 29.9095 20.8281 29.9449 20.8377C29.9489 20.8611 29.9527 20.897 29.9527 20.9483C29.9527 21.069 29.9344 21.1318 29.9252 21.156C29.9231 21.1617 29.9211 21.1663 29.9192 21.1701C29.9178 21.1706 29.9164 21.171 29.9148 21.1715C29.865 21.1876 29.7491 21.2134 29.539 21.2134H29.4158Z" fill="#C28044"/>
</svg>
