<svg width="24" height="24" viewBox="0 0 24 24" fill="none" xmlns="http://www.w3.org/2000/svg">
<path d="M10.3508 4.90364C11.0992 3.81293 11.4734 3.26757 12 3.26757C12.5266 3.26757 12.9008 3.81293 13.6492 4.90364L15.306 7.31847C15.5051 7.60868 15.6047 7.75379 15.7442 7.8551C15.8838 7.95641 16.0526 8.00611 16.3902 8.10553L19.1981 8.93231C20.4692 9.30661 21.1048 9.49376 21.2677 9.99521C21.4305 10.4967 21.0262 11.0215 20.2176 12.0713L18.4344 14.3864C18.2194 14.6655 18.1118 14.8051 18.0584 14.9693C18.005 15.1335 18.0099 15.3096 18.0196 15.6619L18.1 18.5839C18.1365 19.907 18.1547 20.5686 17.7285 20.8784C17.3023 21.1881 16.6787 20.9666 15.4314 20.5236L12.6694 19.5425C12.338 19.4248 12.1723 19.3659 12 19.3659C11.8277 19.3659 11.662 19.4248 11.3306 19.5425L8.56863 20.5236C7.32132 20.9666 6.69767 21.1881 6.27149 20.8784C5.8453 20.5686 5.86352 19.907 5.89995 18.5839L5.98041 15.6619C5.99011 15.3096 5.99496 15.1335 5.94156 14.9693C5.88817 14.8051 5.78065 14.6655 5.56561 14.3864L3.78241 12.0713C2.97378 11.0216 2.56947 10.4967 2.73233 9.99521C2.8952 9.49376 3.53077 9.30661 4.80192 8.93232L7.60979 8.10553C7.94741 8.00611 8.11622 7.95641 8.25578 7.8551C8.39534 7.75379 8.4949 7.60868 8.69402 7.31847L10.3508 4.90364Z" fill="white" stroke="white" stroke-width="2" stroke-linecap="round"/>
</svg>
