<svg width="22" height="22" viewBox="0 0 22 22" fill="none" xmlns="http://www.w3.org/2000/svg">
<path d="M3.77223 20.4444L12.2842 11.9248C13.7662 10.4414 14.5072 9.69968 15.4283 9.69968C16.3494 9.69968 17.0904 10.4414 18.5724 11.9248L20.9788 14.3333M8.76769 7.11111C8.76769 8.03159 8.02217 8.77778 7.10253 8.77778C6.1829 8.77778 5.43738 8.03159 5.43738 7.11111C5.43738 6.19064 6.1829 5.44444 7.10253 5.44444C8.02217 5.44444 8.76769 6.19064 8.76769 7.11111ZM9.88889 21H12.1111C16.3014 21 18.3965 21 19.6983 19.6983C21 18.3965 21 16.3014 21 12.1111V9.88889C21 5.69863 21 3.6035 19.6983 2.30175C18.3965 1 16.3014 1 12.1111 1H9.88889C5.69863 1 3.6035 1 2.30175 2.30175C1 3.6035 1 5.69863 1 9.88889V12.1111C1 16.3014 1 18.3965 2.30175 19.6983C3.6035 21 5.69863 21 9.88889 21Z" stroke="#3B354D" stroke-width="2" stroke-linecap="round"/>
</svg>
