<svg width="19" height="22" viewBox="0 0 19 22" fill="none" xmlns="http://www.w3.org/2000/svg">
<path d="M3.95133 20.251L4.5241 19.4313L3.95133 20.251ZM2.77875 19.0248L3.62143 18.4863L2.77875 19.0248ZM16.2212 19.0248L15.3786 18.4863L16.2212 19.0248ZM15.0487 20.251L14.4759 19.4313L15.0487 20.251ZM11.6875 4.33333C11.6875 4.88562 12.1352 5.33333 12.6875 5.33333C13.2398 5.33333 13.6875 4.88562 13.6875 4.33333H11.6875ZM5.3125 4.33333C5.3125 4.88562 5.76022 5.33333 6.3125 5.33333C6.86478 5.33333 7.3125 4.88562 7.3125 4.33333H5.3125ZM12.3763 1.32544L11.6536 2.01656V2.01656L12.3763 1.32544ZM1 4.44444C0.447715 4.44444 0 4.89216 0 5.44444C0 5.99673 0.447715 6.44444 1 6.44444V4.44444ZM18 6.44444C18.5523 6.44444 19 5.99673 19 5.44444C19 4.89216 18.5523 4.44444 18 4.44444V6.44444ZM8.375 9.88889C8.375 9.3366 7.92728 8.88889 7.375 8.88889C6.82272 8.88889 6.375 9.3366 6.375 9.88889H8.375ZM6.375 16.5556C6.375 17.1078 6.82272 17.5556 7.375 17.5556C7.92728 17.5556 8.375 17.1078 8.375 16.5556H6.375ZM12.625 9.88889C12.625 9.3366 12.1773 8.88889 11.625 8.88889C11.0727 8.88889 10.625 9.3366 10.625 9.88889H12.625ZM10.625 16.5556C10.625 17.1078 11.0727 17.5556 11.625 17.5556C12.1773 17.5556 12.625 17.1078 12.625 16.5556H10.625ZM6.3125 6.44444H12.6875V4.44444H6.3125V6.44444ZM15.9375 9.88889V13.2222H17.9375V9.88889H15.9375ZM3.0625 13.2222V9.88889H1.0625V13.2222H3.0625ZM9.5 20C7.98601 20 6.9292 19.9987 6.11425 19.912C5.31837 19.8273 4.86604 19.6702 4.5241 19.4313L3.37855 21.0707C4.10856 21.5808 4.93833 21.7982 5.90268 21.9008C6.84795 22.0013 8.02951 22 9.5 22V20ZM1.0625 13.2222C1.0625 14.7628 1.06139 15.9903 1.15673 16.9703C1.25348 17.9649 1.45721 18.8137 1.93608 19.5632L3.62143 18.4863C3.38405 18.1148 3.22964 17.6228 3.14733 16.7767C3.06361 15.916 3.0625 14.8027 3.0625 13.2222H1.0625ZM4.5241 19.4313C4.16948 19.1835 3.86211 18.863 3.62143 18.4863L1.93608 19.5632C2.31555 20.1571 2.80506 20.67 3.37855 21.0707L4.5241 19.4313ZM15.9375 13.2222C15.9375 14.8027 15.9364 15.916 15.8527 16.7767C15.7704 17.6228 15.616 18.1148 15.3786 18.4863L17.0639 19.5632C17.5428 18.8137 17.7465 17.9649 17.8433 16.9703C17.9386 15.9903 17.9375 14.7628 17.9375 13.2222H15.9375ZM9.5 22C10.9705 22 12.152 22.0013 13.0973 21.9008C14.0617 21.7982 14.8914 21.5808 15.6214 21.0707L14.4759 19.4313C14.134 19.6702 13.6816 19.8273 12.8858 19.912C12.0708 19.9987 11.014 20 9.5 20V22ZM15.3786 18.4863C15.1379 18.863 14.8305 19.1835 14.4759 19.4313L15.6214 21.0707C16.1949 20.67 16.6845 20.1571 17.0639 19.5632L15.3786 18.4863ZM12.6875 6.44444C13.7188 6.44444 14.3871 6.44676 14.88 6.51606C15.3394 6.58065 15.4958 6.68551 15.5924 6.78644L17.0378 5.4042C16.512 4.85426 15.8564 4.63367 15.1584 4.53554C14.494 4.44213 13.6597 4.44444 12.6875 4.44444V6.44444ZM17.9375 9.88889C17.9375 8.86839 17.9394 8.00676 17.8515 7.32299C17.7605 6.61488 17.5577 5.94785 17.0378 5.4042L15.5924 6.78644C15.6949 6.89366 15.8033 7.07585 15.8679 7.57802C15.9356 8.10454 15.9375 8.81426 15.9375 9.88889H17.9375ZM6.3125 4.44444C5.34029 4.44444 4.506 4.44213 3.84157 4.53554C3.14361 4.63367 2.48804 4.85426 1.96216 5.4042L3.40764 6.78644C3.50415 6.68551 3.66065 6.58065 4.12003 6.51606C4.61293 6.44676 5.28124 6.44444 6.3125 6.44444V4.44444ZM3.0625 9.88889C3.0625 8.81426 3.06445 8.10454 3.13214 7.57802C3.1967 7.07585 3.30511 6.89366 3.40764 6.78644L1.96216 5.4042C1.44229 5.94785 1.2395 6.61488 1.14846 7.32299C1.06055 8.00676 1.0625 8.86839 1.0625 9.88889H3.0625ZM8.4375 2H10.5625V0H8.4375V2ZM11.6875 3.22222V4.33333H13.6875V3.22222H11.6875ZM7.3125 4.33333V3.22222H5.3125V4.33333H7.3125ZM10.5625 2C11.0929 2 11.3856 2.00232 11.5891 2.03094C11.7592 2.05485 11.7126 2.07834 11.6536 2.01656L13.099 0.634317C12.7288 0.247093 12.2762 0.107871 11.8676 0.0504193C11.4925 -0.0023185 11.0338 0 10.5625 0V2ZM13.6875 3.22222C13.6875 2.7255 13.6894 2.25671 13.6404 1.87552C13.5883 1.46997 13.4633 1.01525 13.099 0.634317L11.6536 2.01656C11.6005 1.96106 11.6311 1.93095 11.6568 2.13055C11.6856 2.35449 11.6875 2.67138 11.6875 3.22222H13.6875ZM8.4375 0C7.96616 0 7.50752 -0.0023185 7.13242 0.0504193C6.7238 0.107871 6.27124 0.247093 5.90096 0.634317L7.34644 2.01656C7.28736 2.07834 7.24083 2.05485 7.41088 2.03094C7.61445 2.00232 7.90711 2 8.4375 2V0ZM7.3125 3.22222C7.3125 2.67138 7.31445 2.35449 7.34324 2.13055C7.3689 1.93095 7.39951 1.96106 7.34644 2.01656L5.90096 0.634317C5.53669 1.01525 5.4117 1.46997 5.35956 1.87552C5.31055 2.25671 5.3125 2.7255 5.3125 3.22222H7.3125ZM1 6.44444H18V4.44444H1V6.44444ZM6.375 9.88889V16.5556H8.375V9.88889H6.375ZM10.625 9.88889V16.5556H12.625V9.88889H10.625Z" fill="#CD171A"/>
</svg>
