<svg width="18" height="18" viewBox="0 0 18 18" fill="none" xmlns="http://www.w3.org/2000/svg">
<path d="M9.75 15H15" stroke="white" stroke-width="2" stroke-linecap="round" stroke-linejoin="round"/>
<path d="M12.4626 2.81403C12.6414 2.63521 12.8537 2.49336 13.0874 2.39659C13.321 2.29981 13.5714 2.25 13.8243 2.25C14.0772 2.25 14.3276 2.29981 14.5612 2.39659C14.7949 2.49336 15.0072 2.63521 15.186 2.81403C15.3648 2.99285 15.5066 3.20513 15.6034 3.43877C15.7002 3.67241 15.75 3.92282 15.75 4.17571C15.75 4.4286 15.7002 4.67901 15.6034 4.91264C15.5066 5.14628 15.3648 5.35857 15.186 5.53739L6.18241 14.541C6.05935 14.664 5.90631 14.7528 5.73842 14.7986L3.93834 15.2895C3.19184 15.4931 2.50686 14.8082 2.71046 14.0617L3.20139 12.2616C3.24718 12.0937 3.33599 11.9406 3.45904 11.8176L12.4626 2.81403Z" stroke="white" stroke-width="2" stroke-linecap="round" stroke-linejoin="round"/>
</svg>
