<svg width="24" height="24" viewBox="0 0 24 24" fill="none" xmlns="http://www.w3.org/2000/svg">
<path d="M16.1038 4.66848C16.3158 4.45654 16.5674 4.28843 16.8443 4.17373C17.1212 4.05903 17.418 4 17.7177 4C18.0174 4 18.3142 4.05903 18.5911 4.17373C18.868 4.28843 19.1196 4.45654 19.3315 4.66848C19.5435 4.88041 19.7116 5.13201 19.8263 5.40891C19.941 5.68582 20 5.9826 20 6.28232C20 6.58204 19.941 6.87882 19.8263 7.15573C19.7116 7.43263 19.5435 7.68423 19.3315 7.89617L8.62585 18.6018C8.5028 18.7249 8.34976 18.8137 8.18187 18.8595L5.68834 19.5395C4.94184 19.7431 4.25686 19.0582 4.46046 18.3117L5.14051 15.8181C5.1863 15.6502 5.27511 15.4972 5.39817 15.3741L16.1038 4.66848Z" stroke="white" stroke-width="2" stroke-linecap="round" stroke-linejoin="round"/>
</svg>
