<svg width="24" height="24" viewBox="0 0 24 24" fill="none" xmlns="http://www.w3.org/2000/svg">
<path d="M5.26001 14.6584C5.8436 16.2943 6.94973 17.6985 8.41172 18.6596C9.87371 19.6206 11.6124 20.0864 13.3657 19.9868C15.1191 19.8871 16.7921 19.2274 18.1328 18.107C19.4735 16.9867 20.4092 15.4663 20.7989 13.7751C21.1886 12.0839 21.0112 10.3134 20.2934 8.73046C19.5757 7.14748 18.3564 5.83775 16.8194 4.99861C15.2823 4.15947 13.5108 3.83639 11.7717 4.07803C10.0326 4.31968 8.42005 5.11297 7.17714 6.33837L5.089 8.16919L4.04492 9.08459" stroke="white" stroke-width="2" stroke-linecap="round" stroke-linejoin="round"/>
<path d="M8.65624 10L6.99939 10C5.11377 10 4.17096 10 3.58518 9.41421C2.99939 8.82843 2.99939 7.88562 2.99939 6L2.99939 4.34315" stroke="white" stroke-width="2" stroke-linecap="round" stroke-linejoin="round"/>
</svg>
